<?xml version="1.0" encoding="utf-8"?>
<!-- Generator: Adobe Illustrator 24.0.2, SVG Export Plug-In . SVG Version: 6.00 Build 0)  -->
<svg version="1.1" id="Layer_1" xmlns="http://www.w3.org/2000/svg" xmlns:xlink="http://www.w3.org/1999/xlink" x="0px" y="0px"
	 viewBox="0 0 200 200" style="enable-background:new 0 0 200 200;" xml:space="preserve">
<style type="text/css">
	.st0{opacity:0.1;fill:#022C36;}
	.st1{fill:#FFFFFF;}
	.st2{fill:#F4A780;}
	.st3{fill:#022C36;}
	.st4{fill:#B01E3B;}
	.st5{fill:#C51F49;}
	.st6{fill:#D72C4F;}
	.st7{fill:#3F3F3E;}
	.st8{fill:none;stroke:#231F20;stroke-width:0.4546;stroke-linecap:round;stroke-miterlimit:10;}
	.st9{fill:none;stroke:#231F20;stroke-width:0.6819;stroke-linecap:round;stroke-miterlimit:10;}
	.st10{fill:#074147;}
</style>
<ellipse class="st0" cx="104.84" cy="162.25" rx="85.06" ry="19.18"/>
<g>
	<path class="st1" d="M69.42,35.33c2.65,1,4.93-1.44,4.93-1.44l-6.42-2.66C67.93,31.23,66.77,34.33,69.42,35.33z"/>
	<path class="st2" d="M76.34,21.35c-3.37-2.35-10.49-1.72-12.72,0.6c1.67,3.87,0.14,7.2,0.14,7.2s-1.39-1.59-2.94-1.43
		c-1.63,0.17-2.09,2.25-1.19,4.21c0.9,1.97,3.86,3.43,5.63,2.3c0.69,2,2.3,3.27,4.27,3.64c0.41,3.28-1.12,7.16-2.84,7.93
		c1.78,2.48,6.7,1.68,8.4,0.26c-1.88-1.55-1.94-6.78-1.52-7.65c0,0,4.72,0.23,5.54-5.94C79.96,26.11,76.34,21.35,76.34,21.35z
		 M69.42,35.33c-2.65-1-1.49-4.1-1.49-4.1l6.42,2.66C74.35,33.89,72.07,36.33,69.42,35.33z"/>
</g>
<path class="st3" d="M76.34,21.35c0,0,1.22,1.57,2.16,4.45c0.2-1.73-0.65-4.12-1.25-5.11c0.26-0.92,1.09-3.54-3.82-5.15
	c-5.09-1.67-9.03,0.16-10.62,1.73c-1.35,1.33-1.29,2.94-1.2,4.21c-0.82,1.07-2.21,3.78-1.55,6.5c1.14-0.72,3.38-0.03,4.97,3.03
	c0.33-1.16,1.74-5.53,0.88-9.21c-0.02-0.09,0.06-0.17,0.15-0.15C68.22,22.24,73.54,22.29,76.34,21.35z"/>
<path class="st4" d="M79.97,86.85c0,0,15.69,35.92-29.23,59.65l-4.6-8.02c0,0,27.39-12.6,21.57-39.4
	c-4.33-5.83-8.15-13.94-8.15-13.94C63.41,86.23,73.36,88.13,79.97,86.85"/>
<path class="st5" d="M59.56,85.14c0,0-4.26,8.43-1.56,23.39c2.37,13.15,9.29,15.97,12.03,36.92c3.36-0.76,9.17-1.33,9.17-1.33
	s-1.87-11.87-6-22.62c-5.5-14.31-2.22-29.82-2.22-29.82L59.56,85.14z"/>
<path class="st6" d="M57.22,47.13c3.68-3.72,6.91-3.57,9.07-3.1c0.12,0.03,0.22,0.12,0.26,0.23c0.21,0.61,0.81,1.96,4.3,2.46
	c1,0.14,3.52,0.27,6.12-2.07c0.1-0.09,0.22-0.17,0.36-0.19c2.38-0.42,5.65,0.23,8.07,4.1c1.75,2.81,2.34,8.75,4.7,15.29l-4.82,3.29
	c-1.58-3.58-2.47-6.47-2.98-7.81c-1.45,3.05-3.6,16.98-1.39,27.19c-4.79,2.07-16.56,0.23-22.12-1.63c1.38-8,1.19-18.38-0.92-23.56
	c-1.32,1.54-2.43,3.95-2.43,3.95s-0.68,1.3-1.44,3.16l-5.44-2.89C50.66,58.1,54.13,50.26,57.22,47.13z"/>
<g>
	<path class="st7" d="M103.79,90.63h4.19H108c0.3,0,0.58,0.1,0.83,0.34c0.39,0.37,0.32,0.8,0.09,1.24l-26.7,0.55
		c0.4-0.44,0.73-1.01,0.97-1.64L103.79,90.63z"/>
	<path class="st2" d="M83.09,86.68c-0.96-2.04-3.53-4.36-10.82-2.33c-4.77,1.33-17.5-1.5-19.55-4.91c0,0-0.01-0.01-0.01-0.01
		c-1.61-2.7-0.06-7.72,1.28-11l-5.44-2.89c-1.57,5.53-2.39,10.86-1.76,13.89c0.25,1.19,0.68,2.28,1.36,3.2
		c2.91,3.94,10.9,8.03,18.51,9.69v-0.11c0-0.4,0.32-0.72,0.71-0.73l4.41-0.1c0.12-0.02,0.24-0.03,0.38-0.01
		c0.08,0.01,0.16,0.03,0.24,0.06c0.69,0.24,0.92,0.87,1.14,1.5c0.22,0.64,0.43,1.27,1.08,1.49c1.3,0.44,5.68-0.08,7.17-1.26
		c0.15-0.12,0.3-0.26,0.44-0.41c0.4-0.44,0.73-1.01,0.97-1.64C83.69,89.76,83.75,88.1,83.09,86.68z"/>
	<path class="st7" d="M71.78,91.38l0.38-0.01c0.08,0.01,0.16,0.03,0.24,0.06c0.69,0.24,0.92,0.87,1.14,1.5l-6.12,0.13
		c-0.41,0.01-0.75-0.32-0.75-0.74l0,0v-0.1c0-0.4,0.32-0.73,0.72-0.74L71.78,91.38z"/>
	<path class="st2" d="M113.88,85.14c-2.68-0.98-6.27-0.25-7.58-0.94c-4.12-2.15-7.96-5.6-12.27-12.27
		c-1.73-2.68-2.98-5.44-3.94-8.09l-4.82,3.29c1.74,3.96,4.32,8.77,8.15,13.3c2.79,3.3,7.94,8.53,10.37,10.19h4.19c0,0,0.01,0,0.01,0
		c0.3,0,0.58,0.1,0.83,0.34c0.39,0.37,0.18,0.8-0.04,1.24c-0.37,0.72-0.54,0.99-0.37,1.63c0.17,0.64,2.07,0.71,4.5,0.66
		c2.43-0.06,4.76-0.87,5.03-3.26C118.22,88.82,117.14,86.33,113.88,85.14z"/>
</g>
<path class="st3" d="M50.74,146.5c0,0-1.82,1.12-1.46,2.7c1.01,4.56-0.59,8.02-2.71,7.87c-2.08-3.04-9.28-14.37-9.28-14.37
	s3.99-4.04,8.85-4.22C47.95,141.03,50.74,146.5,50.74,146.5z"/>
<path class="st3" d="M79.2,144.13c0,0,0.37,2.1,1.97,2.35c4.61,0.73,7.24,3.5,6.33,5.41c-3.59,0.82-16.77,3.35-16.77,3.35
	s-2.29-5.19-0.67-9.78C73.08,144.72,79.2,144.13,79.2,144.13z"/>
<path class="st8" d="M63.58,52.46c0,0-1.85,4.14-3.7,6.75"/>
<path class="st9" d="M70.52,94.58c0,0-1.99,15.27,2.17,25.53"/>
<path class="st6" d="M116.23,121.06c-3.29-2.49-5.97-5.52-8.07-8.9l-19.93-6.89c2.47,9.22,7.05,17.51,13.36,23.32
	c6.51,6,13.34,9.44,19.87,11.14l-1.24-16.03C118.89,122.94,117.55,122.06,116.23,121.06z"/>
<path class="st6" d="M165.2,114.4c-1.37-0.55-2.61,1.22-3.29,2.18c-5.9,8.39-24.46,16.95-41.68,7.12l1.24,16.03
	c12.5,3.26,23.89,0.16,29.86-3.59c12.11-7.61,14.5-17.72,14.65-18.6C166.12,116.76,166.44,114.9,165.2,114.4z"/>
<ellipse class="st10" cx="118.91" cy="171.58" rx="3.3" ry="4.53"/>
<ellipse class="st10" cx="77.83" cy="155.77" rx="3.3" ry="4.53"/>
<ellipse class="st10" cx="161.89" cy="166.69" rx="3.3" ry="4.53"/>
<polygon class="st10" points="171.6,108.54 119.24,115.09 119.36,116.63 171.47,109.93 "/>
<polygon class="st10" points="165.92,160.75 164.54,160.94 170.06,109.53 171.6,108.54 "/>
<polygon class="st10" points="157.76,161.64 156.49,161.97 156.16,110.53 157.97,110.37 "/>
<polygon class="st10" points="124.83,166.38 123.31,166.59 119.24,115.09 120.86,115.09 "/>
<polygon class="st10" points="135.84,164.87 134.68,165.03 130.74,113.65 132.42,113.44 "/>
<polygon class="st10" points="147.23,163.31 145.87,163.5 142.28,112.2 144.09,111.98 "/>
<polygon class="st10" points="74.07,148.36 73.04,147.97 63.72,95.59 64.81,95.59 "/>
<polygon class="st10" points="86.05,152.79 85.02,152.41 75.95,99.89 77.01,100.26 "/>
<polygon class="st10" points="99.22,157.63 98.04,157.2 89.21,104.52 90.34,104.77 "/>
<polygon class="st10" points="113.29,162.87 112.25,162.49 104.94,110.12 106.07,110.52 "/>
<polygon class="st10" points="171.6,108.54 122.43,94.57 122.43,95.92 171.47,109.93 "/>
<polygon class="st10" points="122.43,94.57 63.72,95.59 63.94,96.71 122.43,95.92 "/>
<polygon class="st10" points="170.49,118.74 120.09,125.05 120.21,126.6 170.34,120.15 "/>
<polygon class="st10" points="169.35,128.97 120.86,134.93 120.98,136.48 169.23,130.36 "/>
<polygon class="st10" points="168.24,139.21 121.71,145.45 121.83,147 168.11,140.61 "/>
<polygon class="st10" points="167.13,149.4 122.43,155.02 122.55,156.57 167,150.79 "/>
<polygon class="st10" points="166.05,159.35 123.19,165.04 123.31,166.59 165.92,160.75 "/>
<polygon class="st10" points="120.09,125.05 65.43,105.27 65.65,106.39 120.21,126.6 "/>
<polygon class="st10" points="120.86,134.93 67.33,115.59 67.54,116.71 120.98,136.48 "/>
<polygon class="st10" points="121.71,145.45 69.21,126.5 69.42,127.62 121.83,147 "/>
<polygon class="st10" points="122.43,155.02 70.98,136.45 71.19,137.57 122.55,156.57 "/>
<polygon class="st10" points="123.19,165.04 72.83,146.85 73.04,147.97 123.31,166.59 "/>
<path class="st6" d="M112.27,64.45c17.45-17.51,44.77-8.18,46.45-6.83c1.1,0.88,1.79,1.8,2.3,2.35c0.51,0.55,1.2,0.81,1.75,0.73
	c0.55-0.09,0.89-0.42,0.89-1.04c0-3.25,0-14.63,0-16.18c0-2.57-1.77-3.27-1.77-3.27s-36.63-9.72-59.65,10.66
	c-15.37,13.61-18.96,35.89-14,54.4l19.93,6.89C98.94,97.32,100.96,75.81,112.27,64.45z"/>
<polygon class="st10" points="119.24,115.09 63.72,95.59 63.94,96.71 119.36,116.63 "/>
</svg>
